<?xml version="1.0" standalone="no"?>
<!DOCTYPE svg PUBLIC "-//W3C//DTD SVG 20010904//EN"
 "http://www.w3.org/TR/2001/REC-SVG-20010904/DTD/svg10.dtd">
<svg version="1.0" xmlns="http://www.w3.org/2000/svg"
 width="79.000000pt" height="79.000000pt" viewBox="0 0 79.000000 79.000000"
 preserveAspectRatio="xMidYMid meet">
<metadata>
Created by potrace 1.14, written by Peter Selinger 2001-2017
</metadata>
<g transform="translate(0.000000,79.000000) scale(0.100000,-0.100000)"
fill="#000000" stroke="none">
<path d="M193 697 c-4 -12 -8 -26 -8 -32 -1 -5 -5 -30 -9 -55 -4 -25 -10 -58
-12 -74 -3 -16 -8 -34 -11 -39 -3 -6 -1 -7 5 -3 9 5 9 0 2 -19 -5 -14 -11 -40
-12 -58 -1 -18 -4 -36 -7 -42 -6 -11 -14 -63 -13 -91 0 -41 45 -120 84 -149
44 -33 56 -36 77 -21 11 8 13 8 8 -1 -5 -7 4 -14 25 -19 83 -19 189 11 251 71
55 52 78 116 92 249 3 21 7 46 9 55 3 9 8 36 12 61 3 25 8 56 10 70 2 14 7 46
10 72 l5 46 -152 -1 -153 -2 -7 -27 c-4 -15 -10 -46 -13 -68 -3 -23 -8 -45
-11 -49 -10 -17 22 -27 82 -26 l62 2 -7 -31 c-4 -17 -7 -43 -7 -58 0 -16 -2
-28 -5 -28 -3 0 -6 -8 -6 -17 -1 -38 -15 -118 -22 -125 -21 -19 -80 -44 -97
-41 -11 2 -25 5 -32 5 -18 2 -42 57 -37 85 3 13 6 41 7 63 1 22 5 40 8 40 3 0
5 10 4 23 -1 12 2 38 6 57 12 55 22 122 23 160 l1 35 -77 2 c-72 3 -77 1 -85
-20z m270 -452 c-3 -9 -8 -14 -10 -11 -3 3 -2 9 2 15 9 16 15 13 8 -4z"/>
<path d="M738 433 c-1 -19 -4 -34 -8 -43 -1 -3 -4 -16 -6 -30 -2 -14 -5 -37
-8 -51 -2 -15 4 -35 15 -50 18 -24 19 -24 19 84 0 59 -2 107 -5 107 -3 0 -6
-8 -7 -17z"/>
</g>
</svg>
